<?xml version="1.0" encoding="utf-8"?>
<!-- Generator: Adobe Illustrator 21.0.0, SVG Export Plug-In . SVG Version: 6.00 Build 0)  -->
<svg version="1.1" id="Layer_1" xmlns="http://www.w3.org/2000/svg" xmlns:xlink="http://www.w3.org/1999/xlink" x="0px" y="0px"
	 viewBox="0 0 400 400" style="enable-background:new 0 0 400 400;" xml:space="preserve">
<style type="text/css">
	.st0{fill:#3F232A;}
	.st1{fill:#270C14;}
	.st2{fill:#F4B78E;}
	.st3{fill:#F5DCD5;}
	.st4{fill:#F2A57F;}
	.st5{fill:#2F1806;}
	.st6{fill:#FFFFFF;}
	.st7{fill:#F27D7F;}
	.st8{fill:#F4A485;}
	.st9{fill:#6954A0;}
</style>
<g>
	<rect x="100" y="119.1" class="st0" width="212.2" height="235.3"/>
	<rect x="151.9" y="119.1" class="st1" width="108.5" height="235.3"/>
	<rect x="100" y="105.5" class="st0" width="39.8" height="255.2"/>
	<path class="st2" d="M230.4,257.8h-25.8h-32.4c0,0,1.5,44.5-5.7,57.5h35.1h35.1C229.7,302.3,230.4,257.8,230.4,257.8z"/>
	<path class="st3" d="M171.9,285.2c10.8,5.1,21.7,10,34.2,8.8c8.8-0.8,17.3-3.5,25.1-7.5c-1.1-14.6-0.8-28.7-0.8-28.7h-58.1
		C172.3,257.8,172.7,271,171.9,285.2z"/>
	<g>
		<path class="st2" d="M309.5,340.5l-81-31.6h-26.4h-0.9h-26.4l-81,31.6c0,0-28.4,10.2-25,59.5h132.5h0.9h132.5
			C338.4,347.6,309.5,340.5,309.5,340.5z"/>
	</g>
	<g>
		<g>
			<path class="st2" d="M274.8,173.1c-2.4,14.8,1.8,27.9,9.3,29.3c7.5,1.4,15.5-9.4,17.9-24.2c2.4-14.8-1.8-27.9-9.3-29.3
				C285.1,147.5,277.1,158.4,274.8,173.1z"/>
			<g>
				<g>
					<path class="st4" d="M283.8,169.2c0,0,0.1-0.8,0.4-2.2c0.3-1.4,0.9-3.3,1.8-5.3c0.9-2,2.5-4.2,4.4-4.4c0.5,0,1,0,1.4,0.2
						c0.1,0.1,0.6,0.3,0.7,0.4c0.2,0.2,0.3,0.2,0.5,0.4c0.8,0.7,1.4,1.9,1.8,3.2c0.5,1.3,0.7,2.8,0.9,4.2c0.1,1.4,0.2,3,0,4.2
						c-0.2,1.5-0.3,3-0.6,4.3c-0.3,1.3-0.5,2.6-0.7,3.7c-0.3,1.2-0.5,2.2-0.7,3.2c-0.2,1-0.5,1.8-0.7,2.4c-0.4,1.3-0.6,2.1-0.6,2.1
						s0.4-0.7,1-1.9c0.3-0.6,0.7-1.3,1.1-2.3c0.4-0.9,0.8-1.9,1.2-3.1c0.4-1.2,0.8-2.5,1.2-3.9c0.4-1.4,0.6-2.8,0.9-4.3
						c0.3-1.7,0.3-3.4,0.2-5.1c-0.1-1.7-0.4-3.4-1-5c-0.5-1.6-1.4-3.2-2.6-4.3c-0.3-0.3-0.7-0.5-1.1-0.8c-0.4-0.2-0.5-0.2-1-0.4
						c-0.7-0.2-1.5-0.2-2.3-0.1c-1.6,0.2-2.8,1.4-3.7,2.6c-0.9,1.2-1.4,2.5-1.8,3.7c-0.8,2.4-0.9,4.5-1,6
						C283.7,168.4,283.8,169.2,283.8,169.2z"/>
				</g>
				<path class="st4" d="M283.8,169.2c0,0-0.7-1.6,4.2-1.9c0,0,5.5,1,2.3,8.4c-0.7,1.6-1.3,3.2-1.6,5c-0.5,2.5,0.4,5.8-0.9,8
					c-1.7,2.8-6.1,1.2-6.3-2c-0.2-2.5,2.3-6.7,3.5-8.5C284.9,178,288.5,172.7,283.8,169.2z"/>
				<g>
					<path class="st4" d="M281.4,186.2c0,0-0.2,0.1-0.4,0.4c-0.2,0.3-0.5,0.8-0.7,1.4c-0.1,0.3-0.2,0.7-0.3,1
						c-0.1,0.4-0.2,0.8-0.1,1.2c0,0.4,0,0.9,0.1,1.3c0.1,0.4,0.3,0.8,0.4,1.2c0.2,0.4,0.3,0.8,0.6,1.1c0.2,0.3,0.5,0.6,0.7,0.9
						c0.5,0.6,1,0.9,1.5,1.1c1,0.4,1.7,0.4,1.7,0.4s-0.3-0.9-0.8-1.8c-0.1-0.2-0.2-0.5-0.4-0.7c-0.1-0.3-0.2-0.6-0.3-0.8
						c-0.1-0.3-0.2-0.5-0.4-0.8c-0.2-0.2-0.2-0.6-0.3-0.8c-0.3-0.5-0.4-1.1-0.6-1.6c-0.1-0.3-0.1-0.6-0.2-0.8c0-0.3-0.2-0.5-0.2-0.8
						C281.5,187.1,281.4,186.2,281.4,186.2z"/>
				</g>
			</g>
		</g>
	</g>
	<g>
		<g>
			<path class="st2" d="M132,173.1c2.4,14.8-1.8,27.9-9.3,29.3c-7.5,1.4-15.5-9.4-17.9-24.2c-2.4-14.8,1.8-27.9,9.3-29.3
				C121.7,147.5,129.7,158.4,132,173.1z"/>
			<g>
				<g>
					<path class="st4" d="M123,169.2c0,0-0.1-0.8-0.4-2.2c-0.3-1.4-0.9-3.3-1.8-5.3c-0.9-2-2.5-4.2-4.4-4.4c-0.5,0-1,0-1.4,0.2
						c-0.1,0.1-0.6,0.3-0.7,0.4c-0.2,0.2-0.3,0.2-0.5,0.4c-0.8,0.7-1.4,1.9-1.8,3.2c-0.4,1.3-0.7,2.8-0.9,4.2c-0.1,1.4-0.2,3,0,4.2
						c0.2,1.5,0.3,3,0.6,4.3c0.3,1.3,0.5,2.6,0.7,3.7c0.3,1.2,0.5,2.2,0.7,3.2c0.2,1,0.5,1.8,0.7,2.4c0.4,1.3,0.6,2.1,0.6,2.1
						s-0.4-0.7-1-1.9c-0.3-0.6-0.7-1.3-1.1-2.3c-0.4-0.9-0.8-1.9-1.2-3.1c-0.4-1.2-0.8-2.5-1.2-3.9c-0.4-1.4-0.6-2.8-0.9-4.3
						c-0.3-1.7-0.3-3.4-0.2-5.1c0.1-1.7,0.4-3.4,1-5c0.5-1.6,1.4-3.2,2.6-4.3c0.3-0.3,0.7-0.5,1.1-0.8c0.4-0.2,0.5-0.2,1-0.4
						c0.7-0.2,1.5-0.2,2.3-0.1c1.6,0.2,2.8,1.4,3.7,2.6c0.9,1.2,1.4,2.5,1.8,3.7c0.8,2.4,0.9,4.5,1,6
						C123.1,168.4,123,169.2,123,169.2z"/>
				</g>
				<path class="st4" d="M123,169.2c0,0,0.7-1.6-4.2-1.9c0,0-5.5,1-2.3,8.4c0.7,1.6,1.3,3.2,1.6,5c0.5,2.5-0.4,5.8,0.9,8
					c1.7,2.8,6.1,1.2,6.3-2c0.2-2.5-2.3-6.7-3.5-8.5C121.9,178,118.3,172.7,123,169.2z"/>
				<g>
					<path class="st4" d="M125.4,186.2c0,0,0.2,0.1,0.4,0.4c0.2,0.3,0.5,0.8,0.7,1.4c0.1,0.3,0.2,0.7,0.3,1c0.1,0.4,0.2,0.8,0.1,1.2
						c0,0.4,0,0.9-0.1,1.3c-0.1,0.4-0.3,0.8-0.4,1.2c-0.2,0.4-0.3,0.8-0.6,1.1c-0.2,0.3-0.5,0.6-0.7,0.9c-0.5,0.6-1,0.9-1.5,1.1
						c-1,0.4-1.7,0.4-1.7,0.4s0.3-0.9,0.8-1.8c0.1-0.2,0.3-0.5,0.4-0.7c0.1-0.3,0.2-0.6,0.4-0.8c0.1-0.3,0.2-0.5,0.4-0.8
						c0.2-0.2,0.2-0.6,0.3-0.8c0.3-0.5,0.4-1.1,0.6-1.6c0.1-0.3,0.1-0.6,0.2-0.8c0-0.3,0.2-0.5,0.2-0.8
						C125.3,187.1,125.4,186.2,125.4,186.2z"/>
				</g>
			</g>
		</g>
	</g>
	<g>
		<path class="st2" d="M277.1,53c0,0-25.5-27.9-75.7-29.5c-50.2,2.6-75.6,31.5-75.6,31.6c-13.7,44-4.9,95.5,0.9,140.2
			c4.3,32.9,26.5,56,54.4,72.1c0,0,9.9,6.4,23,7.1c13.1-1,22.8-7.6,22.9-7.6c27.1-18.4,47.9-41.1,53.1-74.6
			c4.5-28.9,5.5-60.9,4.5-90.1C284,86.1,282.2,68.4,277.1,53z"/>
	</g>
	<g>
		<g>
			<g>
				<g>
					<path class="st0" d="M179.6,143c0,0-17.9-6-36.5,2.5c3.7-19.8,37.9-11.7,37.9-11.7s2.3,0.5,2,4.1
						C183,137.9,182.1,144,179.6,143z"/>
				</g>
			</g>
			<g>
				<g>
					<path class="st0" d="M221.4,143c0,0,20.4-6,39,2.5c-3.7-19.8-40.4-11.7-40.4-11.7s-2.3,0.5-2,4.1
						C217.9,137.9,218.8,144,221.4,143z"/>
				</g>
			</g>
		</g>
	</g>
	<g>
		<g>
			<g>
				<path class="st5" d="M156.8,161.5c0,5.7,3.3,10.4,7.2,10.4c3.9,0,7.1-4.7,7.1-10.4c0-5.7-3.3-10.4-7.2-10.4
					C159.9,151.1,156.8,155.7,156.8,161.5z"/>
			</g>
			<g>
				<path class="st6" d="M161.1,158.2c0,1.7-1.4,3.1-3.1,3.1c-1.7,0-3.1-1.4-3.1-3.1c0-1.7,1.4-3.1,3.1-3.1
					C159.7,155.1,161.1,156.5,161.1,158.2z"/>
			</g>
		</g>
		<g>
			<g>
				<path class="st5" d="M246.6,161.5c0,5.7-3.3,10.4-7.2,10.4c-3.9,0-7.1-4.7-7.1-10.4c0-5.7,3.3-10.4,7.2-10.4
					C243.5,151.1,246.6,155.7,246.6,161.5z"/>
			</g>
			<g>
				<path class="st6" d="M242.3,158.2c0,1.7,1.4,3.1,3.1,3.1c1.7,0,3.1-1.4,3.1-3.1c0-1.7-1.4-3.1-3.1-3.1
					C243.7,155.1,242.3,156.5,242.3,158.2z"/>
			</g>
		</g>
	</g>
	<g>
		<g>
			<path class="st6" d="M183.8,226.2c0,5.5,7.9,10,17.6,10c9.7,0,17.6-4.5,17.6-10H183.8z"/>
			<g>
				<path class="st7" d="M218.1,227.8c4.1-1,5.7-2.1,5.7-2.1s-2.9-1.2-6.9-2.4c-10.4-4.4-9.7,1.3-15.2,1.3c-2.8,0.1-5.5-2.9-8.1-2.6
					c-2.6,0.3-5,0.8-7.1,1.3c-4.1,1-6.9,2.4-6.9,2.4s2.1,1.4,6.3,2.4c0,0,6.2-0.2,11.3,0.5c0,0,4.7,1.2,7.8,0.2
					C205,228.8,212.5,227.3,218.1,227.8"/>
			</g>
			<g>
				<path class="st7" d="M220.4,225.6c-4.1,4.2-10.4,8-20.2,8c0,0-9.5,0-17.1-8h-3.5c0.1,0.3,0.2,0.5,0.3,0.8c0.9,1.6,1.6,3.5,3,5.2
					c0.6,0.9,1.3,1.8,2,2.7c0.7,0.9,1.7,1.7,2.5,2.5l1.3,1.2l1.6,1.1c1.1,0.7,2,1.5,3.5,1.9c1.3,0.5,2.8,1.1,4,1.3l1.7,0.2l0.9,0.1
					l0.4,0.1l0.2,0l0.6,0l4.1-0.5c1.3-0.3,2.6-0.9,3.8-1.3c1.3-0.4,2.3-1.2,3.4-1.9l1.6-1l1.3-1.3c0.9-0.9,1.8-1.6,2.5-2.5
					c0.7-0.9,1.4-1.8,2-2.7c1.3-1.7,2.1-3.6,3-5.2c0.1-0.3,0.2-0.5,0.4-0.8H220.4z"/>
			</g>
		</g>
		<path class="st6" d="M201.4,238.9c14.4-1,17.1-9.3,17.1-9.3c-6.5,8.1-17.1,7-17.1,7s-1,0.1-1,1.3
			C200.5,237.8,200.7,239,201.4,238.9z"/>
	</g>
	<path class="st0" d="M312.2,129.9c0,0,4.4-112.7-83.4-128.7c0,0-62.2-9.9-85.6,28.7l23.3,59.1c0,0-0.4,21.1,97.1,41.9
		c0,0,20,5.1,21.2,42.4C284.9,173.2,288.3,147.3,312.2,129.9z"/>
	<path class="st8" d="M191.6,200.7c0,0,0.1,0,0.4-0.1c0.2,0,0.6-0.2,1-0.2c0.8-0.2,2-0.4,3.2-0.6c1.2-0.2,2.5-0.3,3.8-0.4
		c1.3-0.1,2.5-0.1,3.8-0.1c1.2,0,2.4,0.1,3.6,0.2c0.6,0.1,1.2,0.1,1.8,0.2c0.6,0.1,1.2,0.2,1.8,0.2c0.6,0.1,1.2,0.2,1.7,0.3
		c0.5,0,1,0.1,1.4,0.2c0.4,0,0.8,0.2,1,0.2c0.3,0.1,0.4,0.1,0.4,0.1s0,0.1-0.1,0.4c-0.1,0.2-0.1,0.6-0.3,1c-0.3,0.9-0.9,2-1.9,3.1
		c-0.5,0.6-1.1,1.1-1.8,1.6c-0.7,0.5-1.5,1-2.3,1.3c-0.9,0.4-1.8,0.7-2.7,0.8c-0.9,0.2-1.9,0.3-2.9,0.2c-1,0-1.9-0.2-2.8-0.4
		c-0.9-0.2-1.8-0.5-2.6-0.9c-1.6-0.7-3-1.7-3.9-2.8c-1-1.1-1.7-2.1-2-3c-0.2-0.4-0.3-0.8-0.4-1C191.6,200.8,191.6,200.7,191.6,200.7
		z"/>
	<g>
		<g>
			<path class="st9" d="M286.8,400c-0.2-23.3,1.3-46.6,20-60.5l-70.1-27.4l-36.3,33.4l-32.4-34.1l-72.5,28.3
				c13.7,7.8,17.7,27.6,18.8,42.1c0.4,5.6,0.7,11.8,0.4,18.1H286.8z"/>
		</g>
	</g>
	<path class="st0" d="M179.5,85.3c0,0-54.4,11.5-54.1,88.2c0,0-2.3-24.6-16.8-21.3c0,0-40.6-101.9,54.5-130.6L179.5,85.3z"/>
	<polygon class="st2" points="156.8,68.9 161.6,96.4 168.3,92.9 	"/>
</g>
</svg>
