<?xml version="1.0" encoding="utf-8"?>
<!-- Generator: Adobe Illustrator 21.0.0, SVG Export Plug-In . SVG Version: 6.00 Build 0)  -->
<svg version="1.1" id="Layer_1" xmlns="http://www.w3.org/2000/svg" xmlns:xlink="http://www.w3.org/1999/xlink" x="0px" y="0px"
	 viewBox="0 0 400 400" style="enable-background:new 0 0 400 400;" xml:space="preserve">
<style type="text/css">
	.st0{fill:#6CB8C9;}
	.st1{fill:#F4B78E;}
	.st2{fill:#F5DCD5;}
	.st3{fill:#194992;}
	.st4{fill:#F2A57F;}
	.st5{fill:#2F1806;}
	.st6{fill:#FFFFFF;}
	.st7{fill:#EBA17D;}
	.st8{fill:#693D34;}
	.st9{fill:#BEE4E5;}
	.st10{fill:none;stroke:#E89780;stroke-linecap:round;stroke-linejoin:round;stroke-miterlimit:10;}
</style>
<g>
	<rect x="158.5" y="292.6" class="st0" width="77.9" height="28.7"/>
	<path class="st1" d="M228.7,258.8h-28h-35.2c0,0,1.6,40-6.1,51.6h38.2h38.2C227.9,298.8,228.7,258.8,228.7,258.8z"/>
	<path class="st2" d="M164.6,289c9,5.8,22.5,8.7,33.3,8.9c11.8,0.1,22.3-3,32.3-7.2c-1.9-15-1.5-31.8-1.5-31.8h-63.3
		C165.4,258.8,166,274.5,164.6,289z"/>
	<path class="st1" d="M319.7,338.1l-91.9-32.9h-29.9h-1h-29.9l-91.9,32.9c0,0-32.2,10.6-28.4,61.9h150.2h1h150.2
		C352.5,345.5,319.7,338.1,319.7,338.1z"/>
	<path class="st3" d="M319.7,338.1l-75.1-26.9l-47.2,32.9l-46.1-33.3l-76.3,27.3c0,0-32.2,10.6-28.4,61.9h301.5
		C352.5,345.5,319.7,338.1,319.7,338.1z"/>
	<g>
		<path class="st1" d="M266.8,180.3c-2.2,13.5,1.6,25.5,8.4,26.8c6.8,1.3,14.1-8.6,16.3-22.1c2.2-13.5-1.6-25.5-8.5-26.8
			C276.2,156.9,268.9,166.8,266.8,180.3z"/>
		<g>
			<g>
				<path class="st4" d="M275,176.6c0,0,0.1-0.8,0.4-2c0.3-1.2,0.8-3,1.7-4.9c0.9-1.8,2.2-3.9,4-4c0.4,0,0.9,0,1.3,0.2
					c0.1,0,0.5,0.2,0.7,0.3c0.1,0.1,0.3,0.2,0.5,0.4c0.7,0.7,1.3,1.7,1.7,2.9c0.4,1.2,0.7,2.5,0.8,3.8c0.1,1.3,0.2,2.7,0,3.9
					c-0.2,1.4-0.3,2.7-0.5,3.9c-0.2,1.2-0.4,2.3-0.7,3.4c-0.3,1-0.5,2-0.7,2.9c-0.2,0.9-0.5,1.6-0.6,2.2c-0.3,1.2-0.5,2-0.5,2
					s0.3-0.6,0.9-1.7c0.3-0.6,0.7-1.2,1-2.1c0.3-0.8,0.7-1.8,1.1-2.8c0.4-1.1,0.7-2.3,1.1-3.5c0.4-1.3,0.6-2.6,0.8-3.9
					c0.3-1.6,0.3-3.1,0.2-4.6c-0.1-1.5-0.4-3.1-0.9-4.6c-0.5-1.5-1.3-2.9-2.4-4c-0.3-0.3-0.6-0.5-1-0.7c-0.4-0.2-0.5-0.2-0.9-0.4
					c-0.7-0.2-1.4-0.2-2.1-0.1c-1.4,0.2-2.6,1.3-3.4,2.4c-0.8,1.1-1.3,2.3-1.6,3.4c-0.7,2.2-0.8,4.1-0.9,5.4
					C274.9,175.9,275,176.6,275,176.6z"/>
			</g>
			<path class="st4" d="M275,176.6c0,0-0.6-1.4,3.9-1.8c0,0,5,0.9,2.1,7.6c-0.6,1.4-1.2,2.9-1.5,4.5c-0.4,2.3,0.4,5.3-0.9,7.3
				c-1.6,2.6-5.5,1.1-5.8-1.8c-0.2-2.3,2.1-6.1,3.2-7.7C276,184.7,279.2,179.8,275,176.6z"/>
			<g>
				<path class="st4" d="M272.8,192.2c0,0-0.2,0.1-0.3,0.4c-0.2,0.3-0.5,0.7-0.7,1.3c-0.1,0.3-0.2,0.6-0.2,1
					c-0.1,0.4-0.1,0.7-0.1,1.1c0,0.4,0,0.8,0.1,1.2c0.1,0.4,0.2,0.7,0.4,1.1c0.2,0.4,0.3,0.8,0.5,1c0.2,0.3,0.5,0.5,0.7,0.8
					c0.4,0.5,0.9,0.8,1.4,1c0.9,0.4,1.5,0.4,1.5,0.4s-0.3-0.8-0.7-1.6c-0.1-0.2-0.2-0.4-0.4-0.6c-0.1-0.2-0.2-0.5-0.3-0.7
					c-0.1-0.2-0.2-0.5-0.4-0.7c-0.2-0.2-0.2-0.5-0.3-0.8c-0.3-0.5-0.4-1-0.5-1.5c-0.1-0.2-0.1-0.5-0.2-0.7c0-0.3-0.1-0.5-0.2-0.7
					C272.9,193,272.8,192.2,272.8,192.2z"/>
			</g>
		</g>
	</g>
	<g>
		<path class="st1" d="M129.1,180.3c2.2,13.5-1.6,25.5-8.4,26.8c-6.8,1.3-14.1-8.6-16.3-22.1c-2.2-13.5,1.6-25.5,8.5-26.8
			C119.7,156.9,127,166.8,129.1,180.3z"/>
		<g>
			<g>
				<path class="st4" d="M120.9,176.6c0,0-0.1-0.8-0.4-2c-0.3-1.2-0.8-3-1.7-4.9c-0.9-1.8-2.2-3.9-4-4c-0.4,0-0.9,0-1.3,0.2
					c-0.1,0-0.5,0.2-0.7,0.3c-0.1,0.1-0.3,0.2-0.5,0.4c-0.7,0.7-1.3,1.7-1.7,2.9c-0.4,1.2-0.7,2.5-0.8,3.8c-0.1,1.3-0.2,2.7,0,3.9
					c0.2,1.4,0.3,2.7,0.5,3.9c0.2,1.2,0.4,2.3,0.6,3.4c0.3,1,0.5,2,0.7,2.9c0.2,0.9,0.5,1.6,0.6,2.2c0.4,1.2,0.5,2,0.5,2
					s-0.4-0.6-0.9-1.7c-0.3-0.6-0.7-1.2-1-2.1c-0.3-0.8-0.7-1.8-1.1-2.8c-0.4-1.1-0.7-2.3-1.1-3.5c-0.4-1.3-0.6-2.6-0.8-3.9
					c-0.3-1.6-0.3-3.1-0.2-4.6c0.1-1.5,0.4-3.1,0.9-4.6c0.5-1.5,1.3-2.9,2.4-4c0.3-0.3,0.6-0.5,1-0.7c0.4-0.2,0.5-0.2,0.9-0.4
					c0.7-0.2,1.4-0.2,2.1-0.1c1.4,0.2,2.6,1.3,3.4,2.4c0.8,1.1,1.3,2.3,1.6,3.4c0.7,2.2,0.8,4.1,0.9,5.4
					C121,175.9,120.9,176.6,120.9,176.6z"/>
			</g>
			<path class="st4" d="M120.9,176.6c0,0,0.6-1.4-3.9-1.8c0,0-5,0.9-2.1,7.6c0.6,1.4,1.2,2.9,1.5,4.5c0.4,2.3-0.4,5.3,0.9,7.3
				c1.6,2.6,5.5,1.1,5.8-1.8c0.2-2.3-2.1-6.1-3.2-7.7C119.9,184.7,116.6,179.8,120.9,176.6z"/>
			<g>
				<path class="st4" d="M123.1,192.2c0,0,0.2,0.1,0.3,0.4c0.2,0.3,0.5,0.7,0.7,1.3c0.1,0.3,0.2,0.6,0.2,1c0.1,0.4,0.1,0.7,0.1,1.1
					c0,0.4,0,0.8-0.1,1.2c-0.1,0.4-0.2,0.7-0.4,1.1c-0.2,0.4-0.3,0.8-0.5,1c-0.2,0.3-0.5,0.5-0.7,0.8c-0.4,0.5-0.9,0.8-1.4,1
					c-0.9,0.4-1.5,0.4-1.5,0.4s0.3-0.8,0.7-1.6c0.1-0.2,0.2-0.4,0.4-0.6c0.1-0.2,0.2-0.5,0.3-0.7c0.1-0.2,0.2-0.5,0.4-0.7
					c0.2-0.2,0.2-0.5,0.3-0.8c0.3-0.5,0.4-1,0.5-1.5c0.1-0.2,0.1-0.5,0.2-0.7c0-0.3,0.1-0.5,0.2-0.7
					C123,193,123.1,192.2,123.1,192.2z"/>
			</g>
		</g>
	</g>
	<path class="st1" d="M198.8,34.7L198.8,34.7c-0.4,0-0.7,0-1.1,0c-0.4,0-0.7,0-1.1,0v0c-54.4,0.5-84.9,16-76.6,115.1l9.4,79
		c0,0,1.7,14.4,17.5,23l29.5,21.9c0,0,14,6.2,21.3,5.6c7.3,0.6,21.3-5.6,21.3-5.6l29.5-21.9c15.8-8.6,17.5-23,17.5-23l9.9-77.1
		C284.2,52.5,253.2,35.2,198.8,34.7z"/>
	<path class="st5" d="M157.6,156.3c0,5.1,2.9,9.3,6.5,9.3c3.5,0,6.4-4.2,6.3-9.4c0-5.2-2.9-9.3-6.5-9.3
		C160.5,147,157.6,151.1,157.6,156.3z"/>
	<path class="st6" d="M161.5,153.3c0,1.5-1.2,2.8-2.8,2.8c-1.5,0-2.8-1.2-2.8-2.8c0-1.5,1.2-2.8,2.8-2.8
		C160.3,150.6,161.5,151.8,161.5,153.3z"/>
	<path class="st5" d="M238.3,156.3c0,5.1-2.9,9.3-6.5,9.3c-3.5,0-6.4-4.2-6.3-9.4c0-5.2,2.9-9.3,6.5-9.3
		C235.4,147,238.3,151.1,238.3,156.3z"/>
	<path class="st6" d="M234.4,153.3c0,1.5,1.2,2.8,2.8,2.8c1.5,0,2.8-1.2,2.8-2.8c0-1.5-1.2-2.8-2.8-2.8
		C235.6,150.6,234.4,151.8,234.4,153.3z"/>
	<g>
		<g>
			<path class="st7" d="M207.4,206.5c-1.5,1.4-3.2,2.5-5.1,3.4c-1.9,0.9-4,1.4-6.1,1.7c-2.2,0.3-4.4,0.1-6.6-0.3
				c-1.1-0.2-2.2-0.5-3.3-1c-1.1-0.4-2-1-3.1-1.5l-1.4-0.7l-0.1-2c-0.1-2.1-0.2-4-0.1-6c0-2,0.2-3.9,0.4-5.9c0.2-2,0.5-3.9,0.8-5.8
				c0.3-1.9,0.8-3.8,1.2-5.7c0.9-3.8,2.2-7.4,3.7-11c0.7-1.8,1.6-3.5,2.5-5.3c0.9-1.7,1.9-3.4,3-5c-0.1,2-0.2,3.9-0.5,5.8
				c-0.2,1.9-0.5,3.8-0.7,5.6c-0.2,1.9-0.4,3.7-0.7,5.6c-0.3,1.8-0.4,3.7-0.6,5.5c-0.3,1.8-0.5,3.7-0.7,5.5
				c-0.2,1.8-0.5,3.7-0.6,5.5c-0.2,1.8-0.4,3.7-0.5,5.5c-0.2,1.8-0.3,3.7-0.4,5.3l-1.6-2.8c0.7,0.4,1.3,1,2,1.4
				c0.7,0.4,1.4,0.8,2.2,1.1c0.7,0.4,1.6,0.6,2.4,0.9c0.8,0.2,1.7,0.4,2.5,0.6c0.9,0.2,1.8,0.2,2.7,0.3c0.9,0.1,1.8,0.1,2.8,0
				C203.4,207.1,205.4,206.9,207.4,206.5z"/>
		</g>
	</g>
	<path class="st8" d="M177.5,137.3c-0.6,2.4-2.9,3.8-5.1,3.4c-8.9-1.6-17.8-0.8-25.9,2.2c-2,0.7-4.4-0.3-5.5-2.5l0,0
		c-1.1-2.2-0.2-4.9,2.2-5.8c9.5-3.5,20-4.6,30.5-2.7C176.3,132.3,178,134.9,177.5,137.3L177.5,137.3z"/>
	<path class="st8" d="M216,137.3c0.6,2.4,2.9,3.8,5.1,3.4c8.9-1.6,17.8-0.8,25.9,2.2c2,0.7,4.4-0.3,5.5-2.5l0,0
		c1.1-2.2,0.2-4.9-2.2-5.8c-9.5-3.5-20-4.6-30.5-2.7C217.1,132.3,215.4,134.9,216,137.3L216,137.3z"/>
	<g>
		<polygon class="st0" points="197.4,344.1 191.2,312.5 158.5,292.6 153.7,312.6 		"/>
		<polygon class="st9" points="191.2,312.5 175.7,340.8 137.9,315.1 158.5,292.6 		"/>
	</g>
	<g>
		<polygon class="st0" points="197.4,344.1 203.6,312.5 236.4,292.6 241.2,312.6 		"/>
		<polygon class="st9" points="203.6,312.5 219.1,340.8 257,315.1 236.4,292.6 		"/>
	</g>
	<path class="st10" d="M200.6,241.3c0,0-3.2,1-7.7,0.1"/>
	<path class="st6" d="M179.5,225.4l4.5,8.7c0,0,19.9,11.2,33.9-8.3C217.9,225.9,196.1,226.9,179.5,225.4z"/>
	<path class="st8" d="M262.5,115.5c0,0,7.1,4.5,5.5,21.5l-0.7,33.9h5.9c0,0-0.4-12.8,9.8-12.7l5.1-75.7c0,0,4-30.2-22-47.8
		c0,0-21.8-5.7-27.9-23.6c0,0-1.8,9.9,0,15.9c0,0-17.5-5-12.8-25.8c0,0-14,5.7-14.1,19.8c0,0-0.6-16.8-10.7-19.8
		c0,0,3.7,12.9-7.7,17.8c0,0-48.7-2-63.2,21.8c0,0-26.3,12.9-22,68l5.1,49.4c0,0,6.9,3.3,11.6,12.7h5.3v-44.8c0,0-0.3-10.6,8.1-10.6
		c0,0-8.1-39.6,15.8-45.6c0,0,35.8-9.6,45,8.3c0,0,1.5-14.5,45.3-8.9C244.1,69.3,271.5,73.2,262.5,115.5z"/>
</g>
</svg>
